<?xml version="1.0" encoding="utf-8"?>
<!-- Generator: Adobe Illustrator 16.0.0, SVG Export Plug-In . SVG Version: 6.00 Build 0)  -->
<!DOCTYPE svg PUBLIC "-//W3C//DTD SVG 1.1//EN" "http://www.w3.org/Graphics/SVG/1.1/DTD/svg11.dtd">
<svg version="1.1"
	 id="svg2" inkscape:version="0.48.2 r9819" sodipodi:docname="New document 1" xmlns:inkscape="http://www.inkscape.org/namespaces/inkscape" xmlns:sodipodi="http://sodipodi.sourceforge.net/DTD/sodipodi-0.dtd" xmlns:rdf="http://www.w3.org/1999/02/22-rdf-syntax-ns#" xmlns:dc="http://purl.org/dc/elements/1.1/" xmlns:svg="http://www.w3.org/2000/svg" xmlns:cc="http://creativecommons.org/ns#"
	 xmlns="http://www.w3.org/2000/svg" xmlns:xlink="http://www.w3.org/1999/xlink" x="0px" y="0px" width="999px" height="998.979px"
	 viewBox="0.5 0.5 999 998.979" enable-background="new 0.5 0.5 999 998.979" xml:space="preserve">
<sodipodi:namedview  id="base" inkscape:window-height="1027" inkscape:window-x="404" inkscape:pageshadow="2" inkscape:window-maximized="0" inkscape:document-units="px" inkscape:current-layer="layer1" inkscape:window-y="-11" fit-margin-bottom="0.5" inkscape:pageopacity="0.0" fit-margin-right="0.5" inkscape:window-width="1509" fit-margin-left="0.5" bordercolor="#666666" borderopacity="1.0" inkscape:zoom="0.18760427" showgrid="false" pagecolor="#ffffff" inkscape:cy="191.34272" fit-margin-top="0.5" inkscape:cx="1554.7661">
	<inkscape:grid  id="grid2996" type="xygrid" snapvisiblegridlinesonly="true" empspacing="5" visible="true" enabled="true">
		</inkscape:grid>
</sodipodi:namedview>
<g id="g3093" transform="translate(-4017.9034,0)">
	<path id="path3063" inkscape:connector-curvature="0" fill="none" stroke="#FF0000" stroke-width="0.25" d="M1180.706,1782.636
		c-408.963,0-740.5,331.506-740.5,740.469s331.537,740.5,740.5,740.5c408.962,0,740.5-331.537,740.5-740.5
		S1589.668,1782.636,1180.706,1782.636z M1072.05,2169.104c217.435,0,446.208,44.728,613.312,142.875
		c22.523,12.757,38.156,31.991,38.156,67.25c0,40.366-32.445,69.375-69.844,69.375c-15.077,0-24.022-3.668-38.156-11.406
		c-134.034-80.369-342.03-124.625-543.188-124.625c-100.412,0-202.396,10.212-295.812,35.562
		c-10.759,2.708-24.356,8.094-37.969,8.094c-39.502,0-69.812-31.251-69.812-70.75c0-40.242,24.94-62.832,51.844-70.781
		C826.138,2183.601,943.965,2169.104,1072.05,2169.104z M1056.956,2423.542c193.826,0,381.332,48.274,528.75,136.5
		c24.714,14.171,33.812,32.168,33.812,58.531c0,32.063-25.527,57.969-57.719,57.969c-16.067,0-26.175-6.492-37.094-12.844
		c-120.456-71.483-287.402-118.969-470.219-118.969c-93.765,0-174.698,13.13-241.688,30.969c-14.434,3.972-22.524,8.25-36.031,8.25
		c-31.848,0-57.844-25.952-57.844-58.062c0-31.488,15.271-53.17,46.062-61.844C848.228,2441.181,933.231,2423.542,1056.956,2423.542
		z M1067.112,2665.354c162.04,0,306.455,37.173,430.719,111.656c18.495,10.798,29.344,21.832,29.344,49.219
		c0,26.694-21.71,46.312-46.062,46.312c-11.976,0-20.146-4.154-31.344-10.969c-107.32-64.93-241.134-99.062-383.156-99.062
		c-79.233,0-158.979,10.161-233.562,25.688c-12.128,2.629-27.39,7.312-36.5,7.312c-28.121,0-46.875-22.337-46.875-46.531
		c0-31.116,17.953-46.609,40.281-50.875C881.417,2677.261,972.504,2665.354,1067.112,2665.354z"/>
	
		<path id="path3071" sodipodi:nodetypes="cccccccccccc" inkscape:connector-curvature="0" fill="none" stroke="#008080" stroke-width="0.25" d="
		M726.974,2720.168l2.499,24.486l18.906,8.744c1.088-28.965,19.101-46.557,42.893-50.805
		c75.396-16.395,168.137-32.065,276.18-32.065c169.881,0,316.424,42.123,435.008,114.437c17.508,10.64,23.241,23.891,25.736,41.477
		l65.88-42.643l-16.657-65.63l-491.727-131.927l-459.745,58.634L726.974,2720.168z"/>
	
		<path id="path3086" sodipodi:nodetypes="cccccccccc" inkscape:connector-curvature="0" fill="none" stroke="#000080" stroke-width="0.25" d="
		M695.908,2537.27l22.321-8.42c0.777-27.979,15.867-51.24,48.14-60.043c83.5-24.531,181.565-39.894,288.673-39.894
		c205.478,0,393.795,53.829,531.373,136.785c22.016,13.52,30.472,23.504,34.624,58.909l101.183-55.611l-424.971-198.822
		l-710.483,41.461L695.908,2537.27z"/>
	
		<path id="path3088" sodipodi:nodetypes="ccccccccc" inkscape:connector-curvature="0" fill="none" stroke="#000000" stroke-width="0.25" d="
		M667.923,2301.233c-2.267-41.802,19.668-71.882,51.804-81.121c105.643-30.685,218.938-45.725,352.804-45.725
		c222.659,0,446.351,46.604,609.996,141.134c32.163,17.504,41.456,41.017,43.207,76.939l101.552-67.045l-304.83-257.716
		l-932.862,99.883L667.923,2301.233z"/>
</g>
<path id="path3101" inkscape:connector-curvature="0" d="M500,0.5C224.137,0.5,0.5,224.115,0.5,499.979s223.637,499.5,499.5,499.5
	s499.5-223.637,499.5-499.5S775.863,0.5,500,0.5z M426.706,261.19c146.67,0,300.987,30.17,413.707,96.375
	c15.193,8.605,25.737,21.58,25.737,45.363c0,27.229-21.885,46.797-47.112,46.797c-10.17,0-16.204-2.475-25.738-7.694
	c-90.411-54.212-230.714-84.064-366.403-84.064c-67.733,0-136.525,6.888-199.539,23.988c-7.257,1.826-16.429,5.459-25.611,5.459
	c-26.646,0-47.092-21.08-47.092-47.724c0-27.146,16.823-42.383,34.971-47.745C260.828,270.969,340.308,261.19,426.706,261.19z
	 M416.525,432.819c130.744,0,257.225,32.563,356.665,92.075c16.671,9.56,22.808,21.699,22.808,39.482
	c0,21.628-17.219,39.103-38.934,39.103c-10.838,0-17.656-4.38-25.021-8.664c-81.252-48.218-193.865-80.249-317.184-80.249
	c-63.248,0-117.841,8.855-163.028,20.89c-9.736,2.679-15.194,5.564-24.305,5.564c-21.483,0-39.019-17.506-39.019-39.165
	c0-21.24,10.302-35.866,31.071-41.717C275.729,444.718,333.068,432.819,416.525,432.819z M423.376,595.933
	c109.303,0,206.718,25.075,290.539,75.317c12.476,7.283,19.793,14.727,19.793,33.2c0,18.007-14.644,31.239-31.071,31.239
	c-8.077,0-13.589-2.802-21.143-7.398c-72.392-43.798-162.655-66.822-258.455-66.822c-53.447,0-107.239,6.854-157.549,17.328
	c-8.181,1.773-18.476,4.932-24.621,4.932c-18.969,0-31.62-15.066-31.62-31.387c0-20.989,12.11-31.44,27.172-34.317
	C298.116,603.965,359.559,595.933,423.376,595.933z"/>
</svg>
